<svg width="24" height="27" fill="none" xmlns="http://www.w3.org/2000/svg"><path d="M12 24.602l-3.898 1.321a2.416 2.416 0 01-.769.12 2.386 2.386 0 01-1.687-.679c-.482-.453-.723-1.03-.723-1.73v-6.755l-3.672-5.94a2.45 2.45 0 01-.274-.626 2.433 2.433 0 01.274-1.918l4.277-6.923c.219-.366.51-.647.87-.844a2.427 2.427 0 011.18-.295h8.846c.424 0 .817.099 1.178.295.362.197.652.478.87.844l4.277 6.923c.125.205.217.414.275.626a2.433 2.433 0 01-.274 1.917l-3.672 5.941v6.754c0 .701-.241 1.278-.723 1.731a2.386 2.386 0 01-1.688.68 2.417 2.417 0 01-.77-.12l-3.896-1.322zm0-2.12l4.538 1.51c.137.043.26.026.372-.051a.38.38 0 00.167-.333V19H6.923v4.608a.38.38 0 00.167.333.407.407 0 00.371.051L12 22.482zM7.577 17h8.846a.381.381 0 00.192-.051.483.483 0 00.154-.141l4.29-6.923a.405.405 0 000-.436l-4.29-6.923a.482.482 0 00-.154-.141.381.381 0 00-.192-.052H7.577a.381.381 0 00-.193.052.482.482 0 00-.153.14L2.94 9.45a.404.404 0 000 .436l4.29 6.923c.042.06.094.107.153.14.06.035.124.052.193.052zm3.023-5.192l4.943-4.977a.868.868 0 01.686-.287c.273.006.508.102.707.287a.965.965 0 01.314.713.959.959 0 01-.294.712l-5.513 5.526a1.156 1.156 0 01-.843.362c-.322 0-.603-.12-.844-.362l-2.692-2.68a.946.946 0 01-.31-.706.99.99 0 01.31-.72.98.98 0 01.713-.31.98.98 0 01.713.31l2.11 2.132z" fill="#36F"/></svg>