<svg width="26" height="26" fill="none" xmlns="http://www.w3.org/2000/svg"><path d="M13 19.333a.963.963 0 00.712-.287.968.968 0 00.288-.713v-5.666a.967.967 0 00-.288-.713.968.968 0 00-.713-.287.967.967 0 00-.712.287.968.968 0 00-.287.713v5.666c0 .284.095.521.287.713.192.192.43.287.713.287zm0-9.948c.305 0 .56-.104.767-.31.206-.206.31-.462.31-.767s-.104-.561-.31-.768A1.042 1.042 0 0013 7.23c-.306 0-.561.104-.768.31-.206.207-.31.463-.31.768s.104.56.31.767c.207.206.463.31.768.31zm.002 16.282c-1.752 0-3.399-.333-4.94-.998a12.795 12.795 0 01-4.023-2.707 12.788 12.788 0 01-2.708-4.02C.666 16.4.333 14.753.333 13.001c0-1.752.332-3.398.997-4.94A12.795 12.795 0 014.037 4.04a12.789 12.789 0 014.021-2.708C9.6.666 11.246.333 12.998.333c1.751 0 3.398.333 4.94.998a12.795 12.795 0 014.022 2.707 12.79 12.79 0 012.709 4.02c.665 1.542.997 3.188.997 4.94 0 1.752-.332 3.398-.997 4.94a12.793 12.793 0 01-2.707 4.023 12.788 12.788 0 01-4.021 2.708c-1.54.665-3.187.998-4.94.998zm-.002-2c2.977 0 5.5-1.034 7.566-3.1 2.067-2.067 3.1-4.59 3.1-7.567 0-2.978-1.033-5.5-3.1-7.567-2.066-2.066-4.589-3.1-7.566-3.1-2.978 0-5.5 1.034-7.567 3.1-2.067 2.067-3.1 4.59-3.1 7.567 0 2.978 1.033 5.5 3.1 7.567 2.067 2.066 4.589 3.1 7.567 3.1z" fill="#36F"/></svg>