<svg width="26" height="26" fill="none" xmlns="http://www.w3.org/2000/svg"><path d="M15.538 25.072c-.384.383-.859.574-1.426.574s-1.042-.191-1.425-.574L.954 13.338a2.161 2.161 0 01-.456-.667 1.981 1.981 0 01-.165-.804V2.333c0-.545.197-1.015.591-1.409a1.924 1.924 0 011.409-.59h9.533a2.094 2.094 0 011.446.595l11.734 11.753c.391.392.59.87.593 1.435.005.565-.185 1.038-.568 1.421l-9.533 9.534zm-1.431-1.405l9.539-9.534-11.774-11.8H2.333v9.534l11.774 11.8zM5.665 7.333a1.61 1.61 0 001.18-.485 1.6 1.6 0 00.488-1.18 1.61 1.61 0 00-.486-1.18A1.603 1.603 0 005.667 4a1.61 1.61 0 00-1.18.486A1.603 1.603 0 004 5.666c0 .462.162.855.485 1.18.324.325.717.487 1.18.487z" fill="#36F"/></svg>