<svg width="24" height="26" fill="none" xmlns="http://www.w3.org/2000/svg"><path d="M3.077 25.333a2.32 2.32 0 01-1.702-.708 2.321 2.321 0 01-.708-1.702V5.077c0-.663.236-1.23.708-1.702a2.32 2.32 0 011.702-.708H9.01A2.95 2.95 0 019.98.778C10.542.26 11.218 0 12.006 0c.79 0 1.465.26 2.027.778.563.52.882 1.149.957 1.889h5.933c.663 0 1.23.236 1.702.708a2.32 2.32 0 01.708 1.702v17.846a2.32 2.32 0 01-.708 1.702 2.32 2.32 0 01-1.702.708H3.077zm0-2h17.846a.392.392 0 00.282-.128.392.392 0 00.128-.282V5.077a.392.392 0 00-.128-.282.392.392 0 00-.282-.128H3.077a.392.392 0 00-.282.128.392.392 0 00-.128.282v17.846c0 .103.042.197.128.282a.39.39 0 00.282.128zm3.59-3.153h6.666a.967.967 0 00.713-.288.968.968 0 00.287-.713.967.967 0 00-.287-.712.968.968 0 00-.713-.287H6.667a.967.967 0 00-.713.287.968.968 0 00-.287.713c0 .284.096.52.287.712.192.192.43.288.713.288zm0-5.18h10.666a.97.97 0 00.713-.287.969.969 0 00.287-.713.967.967 0 00-.287-.713.968.968 0 00-.713-.287H6.667a.967.967 0 00-.713.288.968.968 0 00-.287.713c0 .283.096.52.287.712.192.191.43.287.713.287zm0-5.18h10.666a.966.966 0 00.713-.287.968.968 0 00.287-.713.967.967 0 00-.287-.712.968.968 0 00-.713-.287H6.667a.967.967 0 00-.713.287.968.968 0 00-.287.713c0 .284.096.521.287.712.192.192.43.288.713.288zM12 3.796a.971.971 0 00.717-.283.971.971 0 00.283-.717.971.971 0 00-.283-.717.971.971 0 00-.717-.283.971.971 0 00-.717.283.971.971 0 00-.283.717c0 .289.095.528.283.717a.971.971 0 00.717.283z" fill="#36F"/></svg>