<svg width="26" height="26" fill="none" xmlns="http://www.w3.org/2000/svg"><path d="M17.14 3.73a1.31 1.31 0 01-.965-.394 1.314 1.314 0 01-.393-.965c0-.38.131-.702.394-.965.263-.262.585-.393.966-.393.38 0 .702.131.964.394.263.263.394.585.394.966 0 .38-.132.702-.394.964a1.314 1.314 0 01-.966.394zm-.038 21.257a1.31 1.31 0 01-.965-.394 1.314 1.314 0 01-.394-.966c0-.38.132-.702.395-.964.263-.263.584-.394.965-.394.38 0 .702.132.965.395.262.262.393.584.393.965 0 .38-.131.702-.394.964a1.314 1.314 0 01-.965.394zm5.333-16.743a1.31 1.31 0 01-.965-.395 1.314 1.314 0 01-.393-.965c0-.38.131-.702.394-.965.263-.262.585-.393.965-.393.381 0 .703.131.965.394s.394.585.394.965c0 .381-.132.703-.395.965a1.314 1.314 0 01-.965.394zm-.038 12.269a1.31 1.31 0 01-.965-.395 1.314 1.314 0 01-.394-.965c0-.38.132-.702.395-.965.262-.262.584-.393.965-.393.38 0 .702.131.965.394.262.263.393.585.393.965 0 .381-.131.703-.394.965a1.314 1.314 0 01-.965.394zm1.91-6.154a1.31 1.31 0 01-.965-.394 1.314 1.314 0 01-.393-.966c0-.38.131-.702.394-.964.263-.263.585-.394.965-.394.381 0 .703.131.965.394s.393.585.393.966c0 .38-.13.702-.394.964a1.314 1.314 0 01-.965.394zM.333 12.998c0-3.342 1.125-6.216 3.375-8.62C5.958 1.974 8.715.64 11.982.374a.867.867 0 01.718.248c.2.192.3.43.3.715 0 .268-.093.5-.28.699a1.057 1.057 0 01-.684.338C9.287 2.617 6.983 3.75 5.123 5.77c-1.86 2.022-2.79 4.432-2.79 7.23 0 2.82.93 5.236 2.79 7.246 1.86 2.01 4.164 3.137 6.913 3.38.27.027.498.14.684.34.187.2.28.434.28.701 0 .284-.1.521-.3.712a.87.87 0 01-.718.247c-3.28-.265-6.042-1.6-8.285-4.006C1.455 19.214.333 16.34.333 12.998zM13 15.333a2.25 2.25 0 01-1.653-.68 2.25 2.25 0 01-.68-1.653c0-.137.01-.27.03-.401.019-.131.06-.256.12-.376l-1.986-2a.923.923 0 01-.27-.696.966.966 0 01.282-.696.936.936 0 01.69-.277c.275 0 .505.092.69.277l2 1.987c.097-.04.356-.09.777-.151a2.25 2.25 0 011.652.68A2.25 2.25 0 0115.333 13a2.25 2.25 0 01-.68 1.652 2.25 2.25 0 01-1.653.681z" fill="#36F"/></svg>