<svg width="14" height="14" fill="none" xmlns="http://www.w3.org/2000/svg"><path d="M7 8.054l-5.073 5.073a.724.724 0 01-.522.212.707.707 0 01-.531-.212.718.718 0 01-.218-.527c0-.206.073-.382.218-.527L5.947 7 .874 1.927a.725.725 0 01-.213-.522.707.707 0 01.213-.532A.717.717 0 011.4.656c.207 0 .383.072.527.217L7 5.946 12.074.873a.724.724 0 01.522-.212.707.707 0 01.531.212c.145.145.218.32.218.527a.717.717 0 01-.218.527L8.054 7l5.073 5.073c.139.138.21.313.213.522a.707.707 0 01-.213.532.717.717 0 01-.527.217.717.717 0 01-.526-.217L7 8.054z" fill="#F06B4D"/></svg>