<svg width="25" height="25" fill="none" xmlns="http://www.w3.org/2000/svg"><path d="M2.3 25v-4h4.133l-3.4-11.133c-.6-.334-1.094-.823-1.483-1.467a3.933 3.933 0 01-.583-2.067c0-1.11.388-2.055 1.166-2.833.778-.778 1.722-1.167 2.834-1.167.866 0 1.638.25 2.316.75.678.5 1.15 1.14 1.417 1.917h4.267V3.667c0-.378.127-.695.383-.95a1.29 1.29 0 01.95-.384c.2 0 .394.045.583.134.19.088.35.222.484.4L17.633.733c.2-.2.44-.327.717-.383.278-.056.55-.017.817.117l5.2 2.4c.266.133.45.327.55.583.1.255.094.505-.017.75-.133.267-.328.439-.583.517a1.03 1.03 0 01-.75-.05l-4.8-2.2L15.633 5.4v1.867l3.134 2.866 4.8-2.2c.244-.11.5-.122.766-.033a.908.908 0 01.567.5c.133.267.144.522.033.767a1.17 1.17 0 01-.566.566l-5.2 2.467a1.238 1.238 0 01-.817.117 1.372 1.372 0 01-.717-.384L15.367 9.8a2.4 2.4 0 01-.484.367 1.136 1.136 0 01-.583.166 1.29 1.29 0 01-.95-.383 1.29 1.29 0 01-.383-.95V7.667H8.7a5.204 5.204 0 01-.217.5 3.326 3.326 0 01-.316.5L14.833 21h4.8v4H2.3zM4.967 7.667c.377 0 .694-.128.95-.384a1.29 1.29 0 00.383-.95 1.29 1.29 0 00-.383-.95A1.29 1.29 0 004.967 5a1.29 1.29 0 00-.95.383 1.29 1.29 0 00-.384.95c0 .378.128.695.384.95.255.256.572.384.95.384zM9.167 21h2.6L6.033 10.333H5.9L9.167 21z" fill="#36F"/></svg>