<svg width="28" height="26" fill="none" xmlns="http://www.w3.org/2000/svg"><path d="M12.6 14.42l-2.164-2.143a.954.954 0 00-.686-.283.964.964 0 00-.719.303.957.957 0 00-.29.703c0 .275.097.51.29.703l2.726 2.725c.24.241.522.362.843.362.322 0 .603-.12.844-.362l5.526-5.526a.94.94 0 00.293-.696 1.025 1.025 0 00-.293-.709 1.019 1.019 0 00-.713-.32.944.944 0 00-.713.3L12.6 14.42zM9.213 25.245l-1.843-3.1-3.488-.75a1.102 1.102 0 01-.716-.471 1.17 1.17 0 01-.214-.833l.34-3.587-2.37-2.714A1.114 1.114 0 01.613 13c0-.308.103-.571.308-.79l2.372-2.713-.341-3.587a1.17 1.17 0 01.214-.833 1.1 1.1 0 01.716-.472l3.488-.749 1.843-3.1c.16-.263.38-.442.657-.538a1.12 1.12 0 01.843.044L14 1.652l3.288-1.39a1.12 1.12 0 01.843-.044c.277.096.496.275.657.538l1.843 3.1 3.487.75c.3.057.538.215.717.47.179.257.25.535.214.834l-.341 3.587 2.372 2.713c.205.219.308.482.308.79 0 .308-.103.57-.308.79l-2.372 2.713.341 3.587c.036.299-.035.577-.214.833a1.102 1.102 0 01-.717.472l-3.487.748-1.843 3.1a1.22 1.22 0 01-.657.539 1.123 1.123 0 01-.843-.044L14 24.348l-3.287 1.39a1.12 1.12 0 01-.843.044 1.22 1.22 0 01-.657-.538zM10.6 23.6l3.4-1.441 3.441 1.441 1.893-3.2L23 19.559l-.333-3.759 2.467-2.8-2.467-2.841L23 6.4l-3.666-.8L17.4 2.4 14 3.841 10.56 2.4 8.666 5.6 5 6.4l.334 3.759L2.867 13l2.467 2.8L5 19.6l3.667.8 1.933 3.2z" fill="#36F"/></svg>