<svg width="38" height="35" fill="none" xmlns="http://www.w3.org/2000/svg"><path d="M19.003 34.917c-2.163 0-4.189-.41-6.079-1.227a15.78 15.78 0 01-4.943-3.335 15.78 15.78 0 01-3.335-4.943c-.818-1.89-1.227-3.916-1.227-6.078 0-2.163.41-4.189 1.227-6.079a15.779 15.779 0 013.335-4.942 15.78 15.78 0 014.943-3.336c1.89-.818 3.916-1.227 6.079-1.227 2.162 0 4.188.41 6.078 1.227 1.89.818 3.537 1.93 4.943 3.336a15.777 15.777 0 013.335 4.942c.818 1.89 1.227 3.916 1.227 6.079 0 2.162-.41 4.188-1.227 6.078a15.777 15.777 0 01-3.335 4.943 15.78 15.78 0 01-4.943 3.335c-1.89.818-3.916 1.227-6.078 1.227zm5.45-8.2l1.932-1.933-6.008-6.007v-8.61h-2.75v9.724l6.826 6.825zM7.551.795l1.932 1.932-7.086 7.086L.465 7.882 7.55.796zm22.903 0l7.086 7.086-1.932 1.932-7.086-7.086L30.454.796z" fill="#D7E1FF"/></svg>