<svg width="16" height="16" fill="none" xmlns="http://www.w3.org/2000/svg"><mask id="mask0_1_1498" style="mask-type:alpha" maskUnits="userSpaceOnUse" x="0" y="0" width="16" height="16"><path fill="#D9D9D9" d="M0 0h16v16H0z"/></mask><g mask="url(#mask0_1_1498)"><path d="M8 14.333a5.504 5.504 0 01-2.21-.446 5.739 5.739 0 01-1.797-1.213 5.738 5.738 0 01-1.213-1.797 5.503 5.503 0 01-.446-2.21c0-.787.149-1.523.446-2.21a5.738 5.738 0 011.213-1.798 5.738 5.738 0 011.798-1.213A5.504 5.504 0 018 3a5.51 5.51 0 012.21.446 5.737 5.737 0 011.797 1.213c.512.511.916 1.11 1.213 1.798a5.49 5.49 0 01.446 2.21c0 .786-.148 1.523-.446 2.21a5.737 5.737 0 01-1.213 1.797 5.738 5.738 0 01-1.797 1.213 5.504 5.504 0 01-2.21.446zm1.983-2.982l.702-.702-2.184-2.185v-3.13h-1v3.535l2.482 2.482zM3.837 1.926l.702.702-2.577 2.577-.702-.702 2.577-2.577zm8.328 0l2.577 2.577-.703.702-2.577-2.577.703-.702z" fill="#464753"/></g></svg>