<svg width="32" height="32" fill="none" xmlns="http://www.w3.org/2000/svg"><path d="M29.642 31.584c-3.455 0-6.926-.804-10.413-2.41-3.487-1.607-6.693-3.873-9.62-6.8-2.914-2.926-5.175-6.13-6.781-9.61C1.22 9.283.418 5.814.418 2.36c0-.55.183-1.012.55-1.384.367-.373.825-.559 1.375-.559h5.98c.462 0 .87.151 1.225.453a2 2 0 01.675 1.12l1.05 5.394c.073.5.058.93-.046 1.29a1.91 1.91 0 01-.557.906l-4.234 4.122a25.438 25.438 0 002.336 3.541 34.954 34.954 0 002.843 3.19 31.656 31.656 0 003.209 2.802 32.233 32.233 0 003.67 2.408l4.114-4.15a2.33 2.33 0 011.042-.627 2.98 2.98 0 011.271-.088l5.091 1.036c.463.122.841.359 1.134.709.292.35.438.747.438 1.192v5.944c0 .55-.186 1.008-.558 1.375-.373.366-.834.55-1.384.55z" fill="#D7E1FF"/></svg>