<svg width="16" height="16" fill="none" xmlns="http://www.w3.org/2000/svg"><mask id="mask0_1_1488" style="mask-type:alpha" maskUnits="userSpaceOnUse" x="0" y="0" width="16" height="16"><path fill="#D9D9D9" d="M0 0h16v16H0z"/></mask><g mask="url(#mask0_1_1488)"><path d="M12.96 13.666c-1.256 0-2.518-.292-3.786-.876-1.268-.584-2.434-1.408-3.498-2.472-1.06-1.065-1.882-2.23-2.466-3.495-.584-1.266-.876-2.527-.876-3.784a.69.69 0 01.7-.706h2.174a.725.725 0 01.691.572l.382 1.961c.027.182.021.339-.016.47a.697.697 0 01-.203.329l-1.54 1.499c.248.454.531.883.85 1.288.318.404.663.79 1.034 1.16a11.493 11.493 0 002.501 1.894l1.496-1.509a.847.847 0 01.38-.228c.147-.044.301-.054.461-.032l1.851.377c.169.044.306.13.413.257.106.128.16.272.16.434v2.161a.69.69 0 01-.706.7z" fill="#464753"/></g></svg>