<svg width="8" height="8" fill="none" xmlns="http://www.w3.org/2000/svg"><path d="M4 4.886L1.297 7.591a.584.584 0 01-.44.178.612.612 0 01-.438-.186.603.603 0 01-.181-.443c0-.174.06-.322.18-.443L3.116 4 .41 1.316A.589.589 0 01.233.873.617.617 0 01.418.43.603.603 0 01.86.249c.174 0 .322.06.443.18L4 3.136 6.685.43a.598.598 0 01.44-.181c.171 0 .318.06.438.18.13.13.194.28.194.45 0 .17-.064.316-.194.437L4.866 4l2.705 2.705a.599.599 0 01.182.44c0 .171-.06.318-.182.438a.617.617 0 01-.45.194.576.576 0 01-.436-.194L4.001 4.886z" fill="#667085"/></svg>