<svg width="14" height="14" fill="none" xmlns="http://www.w3.org/2000/svg"><path d="M7 7a3.21 3.21 0 01-2.354-.98 3.21 3.21 0 01-.979-2.353c0-.917.327-1.702.98-2.355A3.21 3.21 0 017 .333a3.21 3.21 0 012.354.98 3.21 3.21 0 01.979 2.354 3.21 3.21 0 01-.98 2.354A3.21 3.21 0 017.002 7zM.335 13.667v-2.334c0-.472.122-.906.365-1.302a2.43 2.43 0 01.968-.906c.861-.43 1.736-.753 2.625-.969a11.466 11.466 0 012.709-.323c.916 0 1.82.108 2.708.323.889.216 1.764.538 2.625.969.403.208.726.51.969.906s.364.83.364 1.302v2.334H.334zM2.001 12h10v-.667a.81.81 0 00-.417-.708 10.864 10.864 0 00-2.27-.844 9.667 9.667 0 00-4.626 0c-.764.188-1.52.469-2.27.844a.81.81 0 00-.417.708V12zm5-6.667c.458 0 .85-.163 1.177-.49.326-.326.49-.718.49-1.176 0-.459-.164-.851-.49-1.177A1.605 1.605 0 007 2c-.459 0-.851.163-1.177.49-.327.326-.49.718-.49 1.177 0 .458.163.85.49 1.177.326.326.718.49 1.177.49z" fill="#BFBFBF"/></svg>