<svg width="20" height="20" fill="none" xmlns="http://www.w3.org/2000/svg"><mask id="mask0_12_5828" style="mask-type:alpha" maskUnits="userSpaceOnUse" x="0" y="0" width="20" height="20"><path fill="#D9D9D9" d="M0 0h20v20H0z"/></mask><g mask="url(#mask0_12_5828)"><path d="M6.666 15h6.667v-1.667H6.666V15zm0-3.333h6.667V10H6.666v1.667zM5 18.333c-.459 0-.851-.163-1.177-.49a1.605 1.605 0 01-.49-1.176V3.333c0-.458.163-.85.49-1.177.326-.326.718-.49 1.177-.49h6.666l5 5v10c0 .459-.163.851-.49 1.178-.326.326-.718.49-1.176.49H5zM10.833 7.5V3.333H5v13.334h10V7.5h-4.167z" fill="#BFBFBF"/></g></svg>