<svg width="16" height="16" fill="none" xmlns="http://www.w3.org/2000/svg"><path d="M14.202 15.084c-1.57 0-3.149-.366-4.734-1.096-1.585-.73-3.042-1.76-4.372-3.09C3.77 9.568 2.744 8.11 2.013 6.529 1.283 4.947.918 3.37.918 1.799a.861.861 0 01.875-.882h2.718c.21 0 .396.069.557.206.16.137.263.307.307.509l.477 2.452a1.42 1.42 0 01-.02.586.872.872 0 01-.254.412L3.654 6.955c.31.568.663 1.104 1.061 1.61.398.506.829.99 1.293 1.45a14.375 14.375 0 003.126 2.368l1.87-1.886c.13-.136.289-.23.474-.285a1.35 1.35 0 01.578-.04l2.314.47a.98.98 0 01.515.323c.133.16.2.34.2.542v2.702a.861.861 0 01-.883.875z" fill="#BFBFBF"/></svg>