<svg width="28" height="35" fill="none" xmlns="http://www.w3.org/2000/svg"><path d="M14 17.253c.912 0 1.691-.325 2.34-.975a3.2 3.2 0 00.97-2.342 3.18 3.18 0 00-.974-2.34 3.199 3.199 0 00-2.343-.971c-.912 0-1.692.324-2.34.974a3.2 3.2 0 00-.97 2.343c0 .912.324 1.692.974 2.34a3.2 3.2 0 002.342.97zm-.004 17.68c-4.614-3.997-8.073-7.718-10.38-11.161C1.312 20.328.159 17.167.159 14.288c0-4.231 1.369-7.656 4.106-10.276s5.981-3.93 9.732-3.93c3.752 0 6.996 1.31 9.733 3.93s4.105 6.045 4.105 10.276c0 2.879-1.152 6.04-3.458 9.484-2.306 3.443-5.766 7.164-10.38 11.162z" fill="#D7E1FF"/></svg>