<svg width="16" height="16" fill="none" xmlns="http://www.w3.org/2000/svg"><mask id="mask0_1_1503" style="mask-type:alpha" maskUnits="userSpaceOnUse" x="0" y="0" width="16" height="16"><path fill="#D9D9D9" d="M0 0h16v16H0z"/></mask><g mask="url(#mask0_1_1503)"><path d="M8 7.91c.332 0 .615-.118.85-.354.236-.236.354-.52.354-.852 0-.331-.118-.615-.354-.85a1.163 1.163 0 00-.852-.354c-.332 0-.616.118-.851.355a1.16 1.16 0 00-.353.852c0 .331.118.615.354.85.236.236.52.354.852.354zm-.001 6.43c-1.678-1.454-2.936-2.807-3.775-4.059C3.386 9.03 2.967 7.88 2.967 6.832c0-1.538.497-2.784 1.493-3.736.995-.953 2.175-1.429 3.539-1.429 1.364 0 2.544.476 3.539 1.429.995.952 1.493 2.198 1.493 3.736 0 1.047-.42 2.197-1.258 3.45-.838 1.251-2.096 2.604-3.774 4.058z" fill="#464753"/></g></svg>