<svg width="16" height="16" fill="none" xmlns="http://www.w3.org/2000/svg"><mask id="mask0_1_1493" style="mask-type:alpha" maskUnits="userSpaceOnUse" x="0" y="0" width="16" height="16"><path fill="#D9D9D9" d="M0 0h16v16H0z"/></mask><g mask="url(#mask0_1_1493)"><path d="M2.871 13c-.337 0-.622-.117-.855-.35a1.163 1.163 0 01-.35-.855v-7.59c0-.337.117-.622.35-.855.233-.233.518-.35.855-.35h10.256c.337 0 .622.117.856.35.233.233.35.518.35.855v7.59c0 .337-.117.622-.35.855-.234.233-.519.35-.856.35H2.871zM8 8.372l5.334-3.41L13.23 4 8 7.333 2.768 4l-.103.962 5.333 3.41z" fill="#464753"/></g></svg>