<svg width="29" height="20" fill="none" xmlns="http://www.w3.org/2000/svg"><path d="M2.084 19.167a1.21 1.21 0 01-.89-.36 1.21 1.21 0 01-.36-.89c0-.355.12-.652.36-.891.239-.24.536-.36.89-.36h17.852c.355 0 .651.12.891.36s.36.537.36.891c0 .355-.12.651-.36.89a1.21 1.21 0 01-.89.36H2.083zm24.449-2.465l-5.664-5.647A1.446 1.446 0 0120.417 10c0-.402.151-.753.452-1.054l5.664-5.632c.23-.23.52-.349.87-.354.35-.005.645.113.886.354.241.242.362.534.362.878s-.12.637-.362.879L23.311 10l4.978 4.945c.241.227.362.516.362.867s-.12.648-.362.889c-.227.23-.516.346-.867.346-.352 0-.648-.115-.89-.346zM2.084 11.25a1.21 1.21 0 01-.89-.36 1.21 1.21 0 01-.36-.89c0-.355.12-.652.36-.89.239-.24.536-.36.89-.36h12.98c.355 0 .652.12.891.36.24.24.36.536.36.89 0 .355-.12.652-.36.891a1.21 1.21 0 01-.89.36H2.084zm0-7.917a1.21 1.21 0 01-.89-.36 1.21 1.21 0 01-.36-.89c0-.354.12-.651.36-.89.239-.24.536-.36.89-.36h17.852c.355 0 .651.12.891.36s.36.537.36.891-.12.651-.36.89a1.21 1.21 0 01-.89.36H2.083z" fill="#464753"/></svg>