<svg width="24" height="24" fill="none" xmlns="http://www.w3.org/2000/svg"><path d="M21.92 23.333c-2.512 0-5.036-.584-7.572-1.752-2.536-1.169-4.866-2.817-6.99-4.945-2.124-2.128-3.77-4.458-4.938-6.99C1.25 7.115.667 4.592.667 2.08a1.376 1.376 0 011.4-1.413h4.349c.336 0 .633.11.89.33.258.219.422.49.492.813l.764 3.923c.053.364.042.677-.034.939-.075.261-.21.481-.405.659l-3.08 2.997a18.503 18.503 0 001.7 2.576c.636.81 1.326 1.582 2.068 2.32.731.73 1.509 1.41 2.333 2.038a23.435 23.435 0 002.67 1.75l2.991-3.017a1.69 1.69 0 01.758-.456 2.16 2.16 0 01.925-.064l3.702.753c.337.09.611.261.824.516.213.254.32.543.32.866v4.323a1.376 1.376 0 01-1.413 1.4zM4.099 8.436l2.38-2.277a.238.238 0 00.083-.141.312.312 0 00-.007-.167l-.58-2.98a.275.275 0 00-.09-.153.259.259 0 00-.166-.051H2.867a.174.174 0 00-.18.18 17.056 17.056 0 001.41 5.589zm11.6 11.523a13.71 13.71 0 002.765.945c.96.218 1.857.347 2.691.388a.174.174 0 00.18-.18v-2.804a.258.258 0 00-.052-.167.274.274 0 00-.154-.09l-2.8-.569a.211.211 0 00-.134-.006.326.326 0 00-.122.083l-2.374 2.4z" fill="#464753"/></svg>