<svg width="26" height="20" fill="none" xmlns="http://www.w3.org/2000/svg"><path d="M2.743 20a2.326 2.326 0 01-1.71-.7 2.326 2.326 0 01-.7-1.71V2.41c0-.673.233-1.243.7-1.71a2.327 2.327 0 011.71-.7h20.513c.674 0 1.244.233 1.71.7.467.467.7 1.037.7 1.71v15.18c0 .673-.233 1.243-.7 1.71-.466.467-1.037.7-1.71.7H2.743zM23.666 3.923l-10.018 6.413a1.572 1.572 0 01-.318.137 1.13 1.13 0 01-.661 0 1.575 1.575 0 01-.318-.137L2.333 3.923V17.59a.4.4 0 00.115.295.4.4 0 00.295.115h20.513a.4.4 0 00.295-.115.4.4 0 00.115-.295V3.923zM13 8.667L23.46 2H2.538L13 8.667zM2.333 4.23V2.706v.04-.042V4.23z" fill="#464753"/></svg>